HIERARCHY
ROOT pelvis
{
	OFFSET 0.003123 -0.351407 0.012037
	CHANNELS 6 Xposition Yposition Zposition Zrotation Yrotation Xrotation 
	JOINT left_hip
	{
		OFFSET 0.058189 -0.092763 -0.026001
		CHANNELS 3 Zrotation Yrotation Xrotation
		JOINT left_knee
		{
			OFFSET 0.054695 -0.378753 -0.009396
			CHANNELS 3 Zrotation Yrotation Xrotation
			JOINT left_ankle
			{
				OFFSET -0.043453 -0.403059 -0.031876
				CHANNELS 3 Zrotation Yrotation Xrotation
				JOINT left_foot
				{
					OFFSET 0.047257 -0.057997 0.118216
					CHANNELS 3 Zrotation Yrotation Xrotation
					End Site
					{
						OFFSET 0.000000 0.000000 0.000000
					}
				}
			}
		}
	}
	JOINT right_hip
	{
		OFFSET -0.063267 -0.103908 -0.021250
		CHANNELS 3 Zrotation Yrotation Xrotation
		JOINT right_knee
		{
			OFFSET -0.044210 -0.362380 -0.016824
			CHANNELS 3 Zrotation Yrotation Xrotation
			JOINT right_ankle
			{
				OFFSET 0.015417 -0.410728 -0.020192
				CHANNELS 3 Zrotation Yrotation Xrotation
				JOINT right_foot
				{
					OFFSET -0.038812 -0.058328 0.119049
					CHANNELS 3 Zrotation Yrotation Xrotation
					End Site
					{
						OFFSET 0.000000 0.000000 0.000000
					}
				}
			}
		}
	}
	JOINT spine_1
	{
		OFFSET -0.002763 0.109891 -0.027618
		CHANNELS 3 Zrotation Yrotation Xrotation
		JOINT spine_2
		{
			OFFSET 0.009448 0.131853 -0.005940
			CHANNELS 3 Zrotation Yrotation Xrotation
			JOINT spine_3
			{
				OFFSET -0.011330 0.052235 0.028447
				CHANNELS 3 Zrotation Yrotation Xrotation
				JOINT neck
				{
					OFFSET -0.012164 0.165167 -0.031615
					CHANNELS 3 Zrotation Yrotation Xrotation
					JOINT head
					{
						OFFSET 0.024783 0.160452 0.020737
						CHANNELS 3 Zrotation Yrotation Xrotation
						End Site
						{
							OFFSET 0.000000 0.000000 0.000000
						}
					}
				}
				JOINT left_collar
				{
					OFFSET 0.046364 0.084944 -0.007220
					CHANNELS 3 Zrotation Yrotation Xrotation
					JOINT left_shoulder
					{
						OFFSET 0.119239 0.057728 -0.015461
						CHANNELS 3 Zrotation Yrotation Xrotation
						JOINT left_elbow
						{
							OFFSET 0.254123 -0.072151 -0.042459
							CHANNELS 3 Zrotation Yrotation Xrotation
							JOINT left_wrist
							{
								OFFSET 0.251987 0.023221 -0.002472
								CHANNELS 3 Zrotation Yrotation Xrotation
								JOINT left_index_1
								{
									OFFSET 0.101902 -0.008688 0.019351
									CHANNELS 3 Zrotation Yrotation Xrotation
									JOINT left_index_2
									{
										OFFSET 0.030149 -0.011154 0.001151
										CHANNELS 3 Zrotation Yrotation Xrotation
										JOINT left_index_3
										{
											OFFSET 0.006504 -0.021577 -0.002433
											CHANNELS 3 Zrotation Yrotation Xrotation
											End Site
											{
												OFFSET 0.000000 0.000000 0.000000
											}
										}
									}
								}
								JOINT left_middle_1
								{
									OFFSET 0.109398 -0.006328 -0.003981
									CHANNELS 3 Zrotation Yrotation Xrotation
									JOINT left_middle_2
									{
										OFFSET 0.026472 -0.015218 -0.004641
										CHANNELS 3 Zrotation Yrotation Xrotation
										JOINT left_middle_3
										{
											OFFSET 0.005022 -0.023347 -0.001911
											CHANNELS 3 Zrotation Yrotation Xrotation
											End Site
											{
												OFFSET 0.000000 0.000000 0.000000
											}
										}
									}
								}
								JOINT left_pinky_1
								{
									OFFSET 0.084047 -0.014539 -0.043750
									CHANNELS 3 Zrotation Yrotation Xrotation
									JOINT left_pinky_2
									{
										OFFSET 0.012124 -0.014448 -0.005375
										CHANNELS 3 Zrotation Yrotation Xrotation
										JOINT left_pinky_3
										{
											OFFSET 0.003798 -0.018853 0.000167
											CHANNELS 3 Zrotation Yrotation Xrotation
											End Site
											{
												OFFSET 0.000000 0.000000 0.000000
											}
										}
									}
								}
								JOINT left_ring_1
								{
									OFFSET 0.097444 -0.009268 -0.027345
									CHANNELS 3 Zrotation Yrotation Xrotation
									JOINT left_ring_2
									{
										OFFSET 0.023561 -0.016057 -0.001895
										CHANNELS 3 Zrotation Yrotation Xrotation
										JOINT left_ring_3
										{
											OFFSET 0.004257 -0.023548 0.000814
											CHANNELS 3 Zrotation Yrotation Xrotation
											End Site
											{
												OFFSET 0.000000 0.000000 0.000000
											}
										}
									}
								}
								JOINT left_thumb_1
								{
									OFFSET 0.040636 -0.017977 0.025611
									CHANNELS 3 Zrotation Yrotation Xrotation
									JOINT left_thumb_2
									{
										OFFSET 0.021637 -0.017639 0.011623
										CHANNELS 3 Zrotation Yrotation Xrotation
										JOINT left_thumb_3
										{
											OFFSET 0.024002 -0.008356 0.006548
											CHANNELS 3 Zrotation Yrotation Xrotation
											End Site
											{
												OFFSET 0.000000 0.000000 0.000000
											}
										}
									}
								}
							}
						}
					}
				}
				JOINT right_collar
				{
					OFFSET -0.047695 0.084339 -0.013400
					CHANNELS 3 Zrotation Yrotation Xrotation
					JOINT right_shoulder
					{
						OFFSET -0.102578 0.053524 -0.012669
						CHANNELS 3 Zrotation Yrotation Xrotation
						JOINT right_elbow
						{
							OFFSET -0.271150 -0.036492 -0.026467
							CHANNELS 3 Zrotation Yrotation Xrotation
							JOINT right_wrist
							{
								OFFSET -0.249267 -0.004533 -0.015325
								CHANNELS 3 Zrotation Yrotation Xrotation
								JOINT right_index_1
								{
									OFFSET -0.099881 -0.011783 0.019600
									CHANNELS 3 Zrotation Yrotation Xrotation
									JOINT right_index_2
									{
										OFFSET -0.030148 -0.011154 0.001151
										CHANNELS 3 Zrotation Yrotation Xrotation
										JOINT right_index_3
										{
											OFFSET -0.006505 -0.021577 -0.002432
											CHANNELS 3 Zrotation Yrotation Xrotation
											End Site
											{
												OFFSET 0.000000 0.000000 0.000000
											}
										}
									}
								}
								JOINT right_middle_1
								{
									OFFSET -0.107376 -0.009422 -0.003734
									CHANNELS 3 Zrotation Yrotation Xrotation
									JOINT right_middle_2
									{
										OFFSET -0.026472 -0.015218 -0.004641
										CHANNELS 3 Zrotation Yrotation Xrotation
										JOINT right_middle_3
										{
											OFFSET -0.005022 -0.023347 -0.001911
											CHANNELS 3 Zrotation Yrotation Xrotation
											End Site
											{
												OFFSET 0.000000 0.000000 0.000000
											}
										}
									}
								}
								JOINT right_pinky_1
								{
									OFFSET -0.082027 -0.017634 -0.043503
									CHANNELS 3 Zrotation Yrotation Xrotation
									JOINT right_pinky_2
									{
										OFFSET -0.012123 -0.014448 -0.005374
										CHANNELS 3 Zrotation Yrotation Xrotation
										JOINT right_pinky_3
										{
											OFFSET -0.003798 -0.018852 0.000167
											CHANNELS 3 Zrotation Yrotation Xrotation
											End Site
											{
												OFFSET 0.000000 0.000000 0.000000
											}
										}
									}
								}
								JOINT right_ring_1
								{
									OFFSET -0.095423 -0.012362 -0.027099
									CHANNELS 3 Zrotation Yrotation Xrotation
									JOINT right_ring_2
									{
										OFFSET -0.023561 -0.016057 -0.001895
										CHANNELS 3 Zrotation Yrotation Xrotation
										JOINT right_ring_3
										{
											OFFSET -0.004257 -0.023548 0.000816
											CHANNELS 3 Zrotation Yrotation Xrotation
											End Site
											{
												OFFSET 0.000000 0.000000 0.000000
											}
										}
									}
								}
								JOINT right_thumb_1
								{
									OFFSET -0.038613 -0.021074 0.025861
									CHANNELS 3 Zrotation Yrotation Xrotation
									JOINT right_thumb_2
									{
										OFFSET -0.021636 -0.017639 0.011623
										CHANNELS 3 Zrotation Yrotation Xrotation
										JOINT right_thumb_3
										{
											OFFSET -0.024004 -0.008353 0.006547
											CHANNELS 3 Zrotation Yrotation Xrotation
											End Site
											{
												OFFSET 0.000000 0.000000 0.000000
											}
										}
									}
								}
							}
						}
					}
				}
			}
		}
	}
}
MOTION
Frames: 4
Frame Time: 0.050000
-0.031774 0.922002 0.073181 -2.109434 -4.189068 -10.567911 9.318221 0.720061 9.980689 -4.024938 -0.276366 9.285340 3.465479 3.337756 -5.399612 0.000000 0.000000 0.000000 0.687278 -0.706502 5.524514 -0.324309 0.090353 1.892848 0.323635 5.473048 -5.842024 0.000000 0.000000 0.000000 0.470263 -1.111866 14.902995 -4.266835 -0.133029 -9.071999 10.052818 -3.064237 26.654260 2.741556 -1.643350 6.497376 0.000000 0.000000 0.000000 -10.926733 -13.751764 7.980904 -49.432915 -25.768416 -4.536514 -1.376121 -57.677882 8.084807 0.427444 2.014828 10.859212 -18.354046 22.190418 5.341911 -26.966747 11.441737 8.644862 0.000000 0.000000 0.000000 -18.324511 5.864642 -1.145707 -62.388716 11.051202 0.986456 0.000000 0.000000 0.000000 35.118903 -35.197389 -51.133354 -70.575379 -28.248965 -26.743524 0.000000 0.000000 0.000000 -10.200854 -16.744692 -9.296596 -86.598770 -5.942155 -3.932648 0.000000 0.000000 0.000000 6.729052 27.708802 27.207355 9.733112 -15.303446 -9.144201 0.000000 0.000000 0.000000 7.478437 5.073922 1.885361 51.055757 16.985231 -1.935628 -19.287196 55.055741 -10.275516 -0.734477 -5.286359 1.589002 10.443194 -10.980894 3.378923 15.062819 -1.455746 -0.795329 0.000000 0.000000 0.000000 9.925373 1.916581 -2.590180 32.472408 2.266181 -9.750465 0.000000 0.000000 0.000000 -25.756985 23.002560 -32.422607 12.043327 2.713676 -8.399780 0.000000 0.000000 0.000000 4.192204 12.027607 -7.988725 25.428022 9.650151 -20.455615 0.000000 0.000000 0.000000 -4.900271 -19.965128 16.852934 -0.534119 8.625175 -3.128127 0.000000 0.000000 0.000000 
-0.034836 0.922083 0.075821 -1.923718 -4.625884 -10.324370 9.408201 0.733646 10.077151 -4.285437 -0.207976 9.087454 3.443440 3.624662 -5.001321 0.000000 0.000000 0.000000 0.582695 -0.643936 5.091923 -0.119010 0.098750 2.431867 0.285886 5.823496 -6.269530 0.000000 0.000000 0.000000 0.547048 -1.123436 14.962519 -4.381763 -0.112176 -9.123961 10.215398 -2.813840 26.472658 2.815426 -1.594502 6.096151 0.000000 0.000000 0.000000 -11.031159 -13.880463 8.081604 -49.856621 -25.489848 -4.545882 -0.837340 -57.624662 7.796514 -0.145460 2.375802 10.821992 -16.945522 18.806393 4.825861 -23.361855 11.818358 11.098484 0.000000 0.000000 0.000000 -15.980137 3.581977 -1.476817 -59.213718 11.461258 2.150864 0.000000 0.000000 0.000000 34.553855 -33.388990 -47.917218 -64.254628 -27.445591 -29.531190 0.000000 0.000000 0.000000 -7.832287 -16.964115 -9.811181 -84.499362 -4.027997 -2.567430 0.000000 0.000000 0.000000 8.897136 26.689296 25.832140 4.124191 -15.542002 -6.684359 0.000000 0.000000 0.000000 7.378553 4.729687 1.686709 51.438326 17.356545 -1.814311 -19.075963 54.362125 -9.990336 -0.594225 -6.159847 1.324818 11.091850 -9.504841 2.930377 17.734868 -1.293358 -1.670170 0.000000 0.000000 0.000000 9.606536 2.462573 -2.807190 29.359077 4.158621 -13.310131 0.000000 0.000000 0.000000 -23.311785 23.402590 -33.346405 10.078814 1.223344 -3.853083 0.000000 0.000000 0.000000 2.974982 12.744043 -8.589008 27.947258 11.149302 -21.974644 0.000000 0.000000 0.000000 -4.669986 -19.691474 16.553338 -1.003863 9.549293 -3.624794 0.000000 0.000000 0.000000 
-0.036014 0.921358 0.078461 -1.825170 -5.100687 -10.132951 9.567064 0.736266 10.069516 -4.744170 -0.123479 9.213134 3.583602 3.993445 -4.983660 0.000000 0.000000 0.000000 0.840939 -0.572854 4.349887 -0.611129 0.183097 3.616957 0.055431 6.148439 -7.131887 0.000000 0.000000 0.000000 0.769268 -1.151575 15.112602 -4.593125 -0.091126 -9.335489 10.322860 -3.267527 26.648416 2.161280 -1.310428 5.342933 0.000000 0.000000 0.000000 -10.924588 -13.409950 7.883018 -50.276606 -26.418777 -4.237746 -0.365520 -56.125525 7.361644 0.085945 1.911228 10.443743 -17.015176 22.028890 5.640472 -37.293270 10.648656 3.713313 0.000000 0.000000 0.000000 -17.242265 5.023989 -1.166170 -64.573100 6.346975 -4.278857 0.000000 0.000000 0.000000 36.449138 -35.185980 -53.637970 -65.547352 -23.463560 -25.229560 0.000000 0.000000 0.000000 -9.125556 -17.847293 -10.133846 -82.475644 -9.182935 -7.330498 0.000000 0.000000 0.000000 6.726712 27.675431 27.144851 9.734239 -15.654645 -9.260579 0.000000 0.000000 0.000000 6.445979 4.765268 1.760740 52.213798 18.332406 -1.636019 -18.883812 53.925858 -9.849830 -0.770053 -6.048309 1.475583 10.404809 -9.029146 2.837326 7.395254 -0.946420 0.214604 0.000000 0.000000 0.000000 8.232737 2.822391 -2.791052 18.592757 0.803433 -6.141224 0.000000 0.000000 0.000000 -26.750063 21.575467 -29.382592 9.890202 2.392899 -7.899547 0.000000 0.000000 0.000000 1.432276 12.147338 -8.278214 19.208332 6.655276 -16.351158 0.000000 0.000000 0.000000 -4.628292 -18.724522 15.552589 0.521615 9.361588 -3.007771 0.000000 0.000000 0.000000 
-0.038605 0.921438 0.079781 -1.819278 -4.707768 -9.926656 9.550816 0.703414 9.839913 -4.367181 -0.201509 9.244448 3.468375 3.737471 -4.936859 0.000000 0.000000 0.000000 0.580746 -0.580716 4.567428 0.132565 0.106736 3.073788 -0.013823 5.838441 -7.029181 0.000000 0.000000 0.000000 0.932576 -1.138838 14.826635 -4.246577 -0.200640 -9.213673 10.002694 -3.312586 26.696060 2.147167 -1.376767 5.780268 0.000000 0.000000 0.000000 -10.833964 -13.344613 7.809130 -50.484804 -27.491281 -4.044170 -1.496416 -54.610806 7.671192 0.583042 2.100090 10.547557 -19.282867 23.144832 5.460958 -46.073593 11.827587 2.179873 0.000000 0.000000 0.000000 -21.250653 5.721129 -1.795747 -73.509430 7.983778 -3.707926 0.000000 0.000000 0.000000 40.176492 -38.663077 -63.384333 -74.096461 -27.020254 -23.812605 0.000000 0.000000 0.000000 -13.328019 -19.616039 -10.374051 -88.420749 -8.535341 -5.440173 0.000000 0.000000 0.000000 5.713026 27.491685 27.008991 12.206793 -15.042168 -10.149988 0.000000 0.000000 0.000000 6.502737 4.894989 1.845856 52.179735 18.409239 -1.580894 -18.119388 53.288162 -9.310194 -2.146555 -6.115402 1.656268 10.029532 -9.132190 2.855288 14.585376 -0.647949 -2.427892 0.000000 0.000000 0.000000 9.989283 2.837339 -3.009117 21.760259 2.585802 -10.604287 0.000000 0.000000 0.000000 -24.982021 21.388912 -28.459601 10.734745 3.157932 -10.237500 0.000000 0.000000 0.000000 3.846792 11.094799 -7.355783 16.839407 7.836721 -21.249499 0.000000 0.000000 0.000000 -4.048213 -18.133575 15.005609 -0.450931 9.113712 -3.282630 0.000000 0.000000 0.000000 
